<?xml version="1.0" encoding="utf-8"?>
<!-- Generator: Adobe Illustrator 16.0.0, SVG Export Plug-In . SVG Version: 6.00 Build 0)  -->
<!DOCTYPE svg PUBLIC "-//W3C//DTD SVG 1.1//EN" "http://www.w3.org/Graphics/SVG/1.1/DTD/svg11.dtd">
<svg version="1.1" id="Layer_1" xmlns="http://www.w3.org/2000/svg" xmlns:xlink="http://www.w3.org/1999/xlink" x="0px" y="0px"
	 width="15px" height="9px" viewBox="0 0 15 9" enable-background="new 0 0 15 9" xml:space="preserve">
<g>
	<g>
		<polygon fill-rule="evenodd" clip-rule="evenodd" points="14,1 14,0 13,0 13,1 12,1 12,2 11,2 11,3 10,3 10,4 9,4 9,5 8,5 8,6 
			7,6 7,5 6,5 6,4 5,4 5,3 4,3 4,2 3,2 3,1 2,1 2,0 1,0 1,1 0,1 0,2 1,2 1,3 2,3 2,4 3,4 3,5 4,5 4,6 5,6 5,7 6,7 6,8 7,8 7,9 8,9 
			8,8 9,8 9,7 10,7 10,6 11,6 11,5 12,5 12,4 13,4 13,3 14,3 14,2 15,2 15,1 		"/>
	</g>
</g>
</svg>
